# xmcd CD database file
#
# Track frame offsets:
#	150
#	26161
#	39069
#	56887
#	76049
#	100706
#	115856
#	136107
#	161353
#	187458
#	211736
#	230977
#	248934
#	276216
#	312497
#	328623
#
# Disc length: 4714 seconds
#
# Revision: 1
# Processed by: cddbd v1.4PL0 Copyright (c) Steve Scherf et al.
# Submitted via: CDex 1.50
#
DISCID=de126810
DTITLE=Allison Moorer - Show
DYEAR=2003
DGENRE=Country
TTITLE0=Day You Said Goodbye
TTITLE1=Don't Cry No Tears
TTITLE2=Alabama Song
TTITLE3=A Soft Place To Fall
TTITLE4=Yessirree
TTITLE5=I'll Break Before I Bend
TTITLE6=Let Go
TTITLE7=Steal The Sun
TTITLE8=Bring Me All Your Lovin'
TTITLE9=Is Heaven Good Enough For You
TTITLE10=Going Down
TTITLE11=Send Down An Angel
TTITLE12=Dying Breed
TTITLE13=No Next Time
TTITLE14=Cold, Cold Earth
TTITLE15=Bully Jones
EXTD=YEAR: 2003
EXTT0=
EXTT1=
EXTT2=
EXTT3=
EXTT4=
EXTT5=
EXTT6=
EXTT7=
EXTT8=
EXTT9=
EXTT10=
EXTT11=
EXTT12=
EXTT13=
EXTT14=
EXTT15=
PLAYORDER=
